<svg width="24" height="24" viewBox="0 0 24 24" fill="none" xmlns="http://www.w3.org/2000/svg">
  <path fill-rule="evenodd" clip-rule="evenodd"
    d="M11.9996 4C12.5518 4 12.9995 4.44772 12.9995 5V16.5858L15.2922 14.2929C15.6827 13.9024 16.3158 13.9024 16.7063 14.2929C17.0968 14.6834 17.0968 15.3166 16.7063 15.7071L12.7067 19.7071C12.3162 20.0976 11.683 20.0976 11.2926 19.7071L7.29287 15.7071C6.90238 15.3166 6.90238 14.6834 7.29287 14.2929C7.68336 13.9024 8.31648 13.9024 8.70697 14.2929L10.9997 16.5858V5C10.9997 4.44772 11.4474 4 11.9996 4Z"
    fill="#1F1F1F" />
  <path fill-rule="evenodd" clip-rule="evenodd"
    d="M11.9996 4C12.5518 4 12.9995 4.44772 12.9995 5V16.5858L15.2922 14.2929C15.6827 13.9024 16.3158 13.9024 16.7063 14.2929C17.0968 14.6834 17.0968 15.3166 16.7063 15.7071L12.7067 19.7071C12.3162 20.0976 11.683 20.0976 11.2926 19.7071L7.29287 15.7071C6.90238 15.3166 6.90238 14.6834 7.29287 14.2929C7.68336 13.9024 8.31648 13.9024 8.70697 14.2929L10.9997 16.5858V5C10.9997 4.44772 11.4474 4 11.9996 4Z"
    fill="black" fill-opacity="0.2" />
</svg>

