<svg width="48" height="48" viewBox="0 0 48 48" fill="none" xmlns="http://www.w3.org/2000/svg">
  <g clip-path="url(#clip0_16_20)">
    <path
      d="M44.0475 26.6461C37.5676 26.6104 23.7441 23.998 23.7441 23.998C23.7441 23.998 37.0419 21.5381 44.0772 21.5777C45.4724 21.5857 48.0138 21.877 47.9999 24.1347C47.9881 26.2398 45.4427 26.6541 44.0475 26.6461Z"
      fill="white" />
    <path
      d="M3.95244 21.3518C10.4324 21.3874 24.2559 23.9999 24.2559 23.9999C24.2559 23.9999 10.9581 26.4598 3.92279 26.4201C2.5276 26.4142 -0.0118158 26.1208 4.13767e-05 23.8651C0.0118986 21.7601 2.55724 21.3458 3.95244 21.3537V21.3518Z"
      fill="white" />
    <path
      d="M21.3608 44.0356C21.3964 37.5361 24.001 23.6709 24.001 23.6709C24.001 23.6709 26.4535 37.0089 26.4139 44.0654C26.406 45.4648 26.1155 48.0138 23.8646 47.9999C21.7659 47.988 21.3529 45.435 21.3608 44.0356Z"
      fill="white" />
    <path
      d="M26.6372 3.96436C26.6016 10.4639 23.997 24.3291 23.997 24.3291C23.997 24.3291 21.5445 10.9911 21.5841 3.93463C21.592 2.53522 21.8825 -0.0118515 24.1334 4.15015e-05C26.2321 0.0119345 26.6451 2.56495 26.6372 3.96436Z"
      fill="white" />
  </g>
  <defs>
    <clipPath id="clip0_16_20">
      <rect width="48" height="48" fill="white" />
    </clipPath>
  </defs>
</svg>
