<svg width="24" height="24" viewBox="0 0 24 24" fill="none" xmlns="http://www.w3.org/2000/svg">
  <path fill-rule="evenodd" clip-rule="evenodd"
    d="M11.2926 4.29289C11.683 3.90237 12.3162 3.90237 12.7067 4.29289L16.7063 8.29289C17.0968 8.68342 17.0968 9.31658 16.7063 9.70711C16.3158 10.0976 15.6827 10.0976 15.2922 9.70711L12.9995 7.41421V19C12.9995 19.5523 12.5518 20 11.9996 20C11.4474 20 10.9997 19.5523 10.9997 19V7.41421L8.70697 9.70711C8.31648 10.0976 7.68336 10.0976 7.29287 9.70711C6.90238 9.31658 6.90238 8.68342 7.29287 8.29289L11.2926 4.29289Z"
    fill="#1F1F1F" />
  <path fill-rule="evenodd" clip-rule="evenodd"
    d="M11.2926 4.29289C11.683 3.90237 12.3162 3.90237 12.7067 4.29289L16.7063 8.29289C17.0968 8.68342 17.0968 9.31658 16.7063 9.70711C16.3158 10.0976 15.6827 10.0976 15.2922 9.70711L12.9995 7.41421V19C12.9995 19.5523 12.5518 20 11.9996 20C11.4474 20 10.9997 19.5523 10.9997 19V7.41421L8.70697 9.70711C8.31648 10.0976 7.68336 10.0976 7.29287 9.70711C6.90238 9.31658 6.90238 8.68342 7.29287 8.29289L11.2926 4.29289Z"
    fill="black" fill-opacity="0.2" />
</svg>

